<svg xmlns="http://www.w3.org/2000/svg" viewBox="0 0 320 320" width="320" height="320">
  <defs>
    <!-- Launcher Circular Gradient -->
    <linearGradient id="launcherBg" x1="0%" y1="0%" x2="0%" y2="100%">
      <stop offset="0%" stop-color="#00b4ff" />
      <stop offset="100%" stop-color="#006eb8" />
    </linearGradient>

    <!-- Silver Weather Vane Gradients -->
    <linearGradient id="cpjSilverGrad" x1="0" y1="0" x2="0.8" y2="1">
      <stop offset="0%" stop-color="#ffffff"/>
      <stop offset="30%" stop-color="#eaf1f7"/>
      <stop offset="65%" stop-color="#b2c6d6"/>
      <stop offset="100%" stop-color="#697d8c"/>
    </linearGradient>
    <linearGradient id="cpjSilverTailGrad" x1="0" y1="0" x2="1" y2="1">
      <stop offset="0%" stop-color="#ffffff"/>
      <stop offset="40%" stop-color="#d4e2ed"/>
      <stop offset="100%" stop-color="#556977"/>
    </linearGradient>

    <!-- Glows & Shading -->
    <radialGradient id="cpjDoorGlow" cx="50%" cy="50%" r="50%">
      <stop offset="0%" stop-color="#fff8db"/>
      <stop offset="55%" stop-color="#ffb700"/>
      <stop offset="100%" stop-color="#ff7700"/>
    </radialGradient>
    <radialGradient id="cpjWinGlow" cx="50%" cy="50%" r="50%">
      <stop offset="0%" stop-color="#fffde6"/>
      <stop offset="55%" stop-color="#ffbe1a"/>
      <stop offset="100%" stop-color="#ff9900"/>
    </radialGradient>
    <radialGradient id="cpjCastIron" cx="35%" cy="35%" r="65%">
      <stop offset="0%" stop-color="#697a88"/>
      <stop offset="50%" stop-color="#3a454d"/>
      <stop offset="100%" stop-color="#181e23"/>
    </radialGradient>
    <radialGradient id="cpjFloorGrad" cx="50%" cy="40%" r="50%">
      <stop offset="0%" stop-color="#ffe680" stop-opacity="0.85"/>
      <stop offset="50%" stop-color="#ffb700" stop-opacity="0.45"/>
      <stop offset="100%" stop-color="#ff9900" stop-opacity="0"/>
    </radialGradient>
    <filter id="cpjSoftBlur" x="-30%" y="-30%" width="160%" height="160%">
      <feGaussianBlur stdDeviation="0.9"/>
    </filter>
    <filter id="bubbleShadow" x="-20%" y="-20%" width="140%" height="140%">
      <feDropShadow dx="0" dy="8" stdDeviation="10" flood-color="#00143c" flood-opacity="0.65" />
    </filter>
  </defs>

  <style>
    @keyframes cpjWindDash1 {
      0%, 14% { transform: translate(-10px, 0); opacity: 0; }
      16% { opacity: 0.95; }
      24% { transform: translate(3px, -0.6px); opacity: 1; }
      33% { transform: translate(13px, 0.6px); opacity: 0.85; }
      41% { transform: translate(23px, -0.3px); opacity: 0; }
      100% { transform: translate(26px, 0); opacity: 0; }
    }
    @keyframes cpjWindDash2 {
      0%, 17% { transform: translate(-10px, 0); opacity: 0; }
      19% { opacity: 0.9; }
      27% { transform: translate(4px, 0.7px); opacity: 1; }
      36% { transform: translate(14px, -0.6px); opacity: 0.85; }
      44% { transform: translate(24px, 0.2px); opacity: 0; }
      100% { transform: translate(26px, 0); opacity: 0; }
    }
    @keyframes cpjWindDash3 {
      0%, 20% { transform: translate(-10px, 0); opacity: 0; }
      22% { opacity: 0.85; }
      30% { transform: translate(5px, -0.5px); opacity: 0.95; }
      39% { transform: translate(15px, 0.6px); opacity: 0.8; }
      47% { transform: translate(25px, -0.2px); opacity: 0; }
      100% { transform: translate(26px, 0); opacity: 0; }
    }
    @keyframes cpjRoosterSpin {
      0%, 15% { transform: rotate(-23deg) rotateY(0deg); }
      16% { transform: rotate(-23deg) rotateY(0deg); }
      25% { transform: rotate(-23deg) rotateY(360deg); }
      34% { transform: rotate(-23deg) rotateY(720deg); }
      43% { transform: rotate(-23deg) rotateY(1080deg); }
      46% { transform: rotate(-23deg) rotateY(1080deg); }
      100% { transform: rotate(-23deg) rotateY(1080deg); }
    }
    @keyframes cpjSmokeRise1 {
      0% { transform: translate(0, 0) scale(0.6); opacity: 0.9; }
      50% { transform: translate(2px, -3.5px) scale(1.1); opacity: 0.7; }
      100% { transform: translate(4.5px, -7.5px) scale(1.55); opacity: 0; }
    }
    @keyframes cpjSmokeRise2 {
      0% { transform: translate(0, 0) scale(0.5); opacity: 0.95; }
      60% { transform: translate(3px, -4.5px) scale(1.25); opacity: 0.6; }
      100% { transform: translate(5.5px, -9.5px) scale(1.75); opacity: 0; }
    }
    @keyframes cpjFireGlow {
      0%, 100% { filter: drop-shadow(0 0 2px rgba(255, 170, 0, 0.8)); opacity: 0.9; }
      35% { filter: drop-shadow(0 0 4px rgba(255, 200, 0, 1)); opacity: 1; }
      70% { filter: drop-shadow(0 0 2.5px rgba(255, 150, 0, 0.85)); opacity: 0.94; }
    }
    @keyframes cpjFloorBlur {
      0%, 100% { transform: scale(0.92); opacity: 0.65; }
      50% { transform: scale(1.18); opacity: 0.95; }
    }
    @keyframes cpjCleanGlass {
      0%, 65% { transform: scale(0) rotate(0deg); opacity: 0; }
      75% { transform: scale(1.2) rotate(45deg); opacity: 1; }
      85% { transform: scale(0.8) rotate(90deg); opacity: 0.8; }
      95%, 100% { transform: scale(0); opacity: 0; }
    }
    @keyframes cpjZSleep {
      0% { transform: translate(0, 0) rotate(0deg); opacity: 0; }
      20% { opacity: 0.95; }
      80% { opacity: 0.7; }
      100% { transform: translate(4.5px, -8px) rotate(8deg); opacity: 0; }
    }

    .cpj-anim-wind-1 { animation: cpjWindDash1 4.8s infinite ease-in-out; }
    .cpj-anim-wind-2 { animation: cpjWindDash2 4.8s infinite ease-in-out; }
    .cpj-anim-wind-3 { animation: cpjWindDash3 4.8s infinite ease-in-out; }
    .cpj-anim-rooster { transform-origin: 9.8px 4.4px; animation: cpjRoosterSpin 4.8s infinite linear; }
    .cpj-anim-smoke-1 { transform-origin: 21.5px 3px; animation: cpjSmokeRise1 2.2s infinite ease-out; }
    .cpj-anim-smoke-2 { transform-origin: 22.5px 2px; animation: cpjSmokeRise2 2.2s infinite ease-out 0.9s; }
    .cpj-anim-fire { animation: cpjFireGlow 2.4s infinite ease-in-out; }
    .cpj-anim-floor { transform-origin: 10px 22.5px; animation: cpjFloorBlur 2.4s infinite ease-in-out; }
    .cpj-anim-sparkle { transform-origin: 21.6px 13.2px; animation: cpjCleanGlass 3.5s infinite ease-in-out; }
    .cpj-anim-z1 { animation: cpjZSleep 3s infinite ease-in-out; }
    .cpj-anim-z2 { animation: cpjZSleep 3s infinite ease-in-out 1s; }
    .cpj-anim-z3 { animation: cpjZSleep 3s infinite ease-in-out 2s; }
  </style>

  <!-- Circular Launcher Background Frame -->
  <circle cx="160" cy="140" r="115" fill="url(#launcherBg)" stroke="#00e5ff" stroke-width="6" filter="url(#bubbleShadow)" />
  <circle cx="160" cy="140" r="110" fill="none" stroke="#7fe3ff" stroke-width="2" opacity="0.6" />

  <!-- Shared Dome & Tunnel Geometry (Centered at cx:160, cy:140, scale: 6.8) -->
  <g transform="translate(65, 45) scale(6.8)">
    <!-- Weather Vane Haste Fixa -->
    <g transform="rotate(-23, 11.5, 6.8)">
      <ellipse cx="11.5" cy="6.8" rx="1.2" ry="0.5" fill="#002447" opacity="0.5"/>
      <line x1="11.5" y1="6.8" x2="11.5" y2="4.4" stroke="#253542" stroke-width="0.9" stroke-linecap="round"/>
      <line x1="11.5" y1="6.8" x2="11.5" y2="4.4" stroke="#ffffff" stroke-width="0.35" stroke-linecap="round"/>
      <circle cx="11.5" cy="4.5" r="0.6" fill="url(#cpjSilverGrad)" stroke="#1a252e" stroke-width="0.3"/>
    </g>

    <!-- Chimney Body -->
    <g transform="rotate(10, 20.5, 7)">
      <ellipse cx="20.5" cy="7.2" rx="1.5" ry="0.6" fill="#002447" opacity="0.6"/>
      <path d="M 19.3 7 L 19.8 2.8 L 21.8 2.8 L 21.5 7 Z" fill="#60727f" stroke="#101c24" stroke-width="0.7"/>
      <line x1="20.2" y1="3" x2="20" y2="6.8" stroke="#d5e4ec" stroke-width="0.6" stroke-linecap="round"/>
      <rect x="19.4" y="4.6" width="2.3" height="0.85" rx="0.3" fill="#e74c3c" stroke="#962d22" stroke-width="0.35"/>
      <rect x="21.7" y="5.0" width="1.4" height="0.65" rx="0.2" transform="rotate(25, 21.7, 5.0)" fill="#e74c3c" stroke="#962d22" stroke-width="0.25"/>
      <ellipse cx="20.8" cy="2.8" rx="2.5" ry="0.8" fill="#202b33" stroke="#101c24" stroke-width="0.6"/>
      <path d="M 18.3 2.8 L 20.8 0.6 L 23.3 2.8 Z" fill="#899ba8" stroke="#101c24" stroke-width="0.6" stroke-linejoin="round"/>
    </g>

    <!-- Base de Neve -->
    <ellipse cx="14" cy="23" rx="12" ry="2.5" fill="#a8e0ff" opacity="0.6"/>

    <!-- Dome Principal -->
    <path d="M 6 21 C 5 13 9 5 17 5 C 23 5 26 12 25 21 Z" fill="#ffffff" stroke="#003566" stroke-width="1.2"/>
    <path d="M 8.5 16 C 13 14 20 14 24.5 16.5" fill="none" stroke="#55aee8" stroke-width="1"/>
    <path d="M 10 11.5 C 13.5 10 18 10 23 12" fill="none" stroke="#55aee8" stroke-width="1"/>
    <path d="M 12.5 8 C 15 7.2 18 7.2 20.5 8.5" fill="none" stroke="#55aee8" stroke-width="0.9"/>
    <line x1="16.5" y1="5.2" x2="16.5" y2="7.8" stroke="#55aee8" stroke-width="0.9"/>
    <line x1="13.5" y1="8.2" x2="13.5" y2="10.8" stroke="#55aee8" stroke-width="0.9"/>
    <line x1="16" y1="11.5" x2="16" y2="14.8" stroke="#55aee8" stroke-width="0.9"/>

    <!-- Window Structure -->
    <g transform="matrix(0.85 0 0 1 3.2 0)">
      <path d="M 17.6 11.8 L 22.8 12.1 L 22.8 16.8 L 17.6 16.8 Z" fill="#7a3e14" stroke="#452004" stroke-width="0.8" stroke-linejoin="round"/>
      <line x1="18.2" y1="12.3" x2="22.2" y2="12.4" stroke="#9e521e" stroke-width="0.4"/>
      <rect x="17.0" y="16.7" width="6.4" height="0.95" rx="0.4" fill="#4d2307" stroke="#261002" stroke-width="0.5"/>
      <line x1="20.2" y1="12.7" x2="20.2" y2="16.2" stroke="#452004" stroke-width="0.65"/>
      <line x1="18.3" y1="14.45" x2="22.1" y2="14.45" stroke="#452004" stroke-width="0.65"/>
    </g>

    <!-- Entrance Tunnel -->
    <path d="M 3.5 21 C 3.5 14 6 12.5 11 12.5 C 15 12.5 15.5 14.5 15.5 21 Z" fill="#eaf7ff" stroke="#003566" stroke-width="1.2"/>
    <path d="M 4 16 L 7 16" stroke="#55aee8" stroke-width="0.9"/>
    <path d="M 12 16 L 15 16" stroke="#55aee8" stroke-width="0.9"/>
    <path d="M 6.5 13.5 L 8.5 15" stroke="#55aee8" stroke-width="0.9"/>
    <path d="M 12.5 13.5 L 11 15" stroke="#55aee8" stroke-width="0.9"/>
  </g>

  <!-- ==================== STATE: OFFLINE (INITIAL) ==================== -->
  <g id="stateOffline">
    <set attributeName="display" to="none" begin="btnTurnOn.click" />
    <set attributeName="display" to="inline" begin="btnTurnOff.click" />

    <g transform="translate(65, 45) scale(6.8)">
      <!-- Z z z Sleep Animation -->
      <text class="cpj-anim-z1" x="14" y="3.5" font-family="'Segoe UI', Arial, sans-serif" font-weight="900" font-size="3.8" fill="#68c7ff">Z</text>
      <text class="cpj-anim-z2" x="17.5" y="1" font-family="'Segoe UI', Arial, sans-serif" font-weight="900" font-size="3.1" fill="#8ee0ff">z</text>
      <text class="cpj-anim-z3" x="20.5" y="-1" font-family="'Segoe UI', Arial, sans-serif" font-weight="900" font-size="2.4" fill="#b8f0ff">z</text>

      <!-- Static Rooster -->
      <g transform="rotate(-23, 9.8, 4.4)">
        <line x1="6.2" y1="4.6" x2="14.4" y2="4.6" stroke="#16222b" stroke-width="0.7"/>
        <line x1="6.4" y1="4.6" x2="14.2" y2="4.6" stroke="#ffffff" stroke-width="0.25"/>
        <polygon points="5.6,4.6 7.8,3.7 7.3,4.6 7.8,5.5" fill="url(#cpjSilverGrad)" stroke="#16222b" stroke-width="0.3"/>
        <path d="M 12.8 3.8 L 14.4 3.1 L 13.9 4.6 L 14.4 6.1 L 12.8 5.4 Z" fill="url(#cpjSilverGrad)" stroke="#16222b" stroke-width="0.3"/>
        <path d="M 9.5 4.0 C 8.8 4.0, 8.2 3.65, 7.8 3.2 C 7.6 2.8, 7.7 2.4, 7.8 2.05 C 7.7 1.9, 7.5 1.95, 7.3 1.85 C 7.15 1.75, 7.2 1.6, 7.3 1.5 L 6.3 1.45 L 7.2 1.20 L 7.3 0.80 L 7.55 1.00 L 7.8 0.55 L 8.05 0.85 L 8.35 0.40 L 8.60 0.75 L 8.95 0.55 L 9.15 0.85 C 9.0 1.05, 8.8 1.15, 8.6 1.25 C 8.9 1.7, 9.4 2.2, 9.9 2.6 C 10.4 2.9, 10.9 3.0, 11.4 2.8 C 12.3 1.3, 13.5 0.8, 14.5 1.7 C 13.9 2.1, 13.2 2.5, 12.3 2.7 C 13.1 1.9, 14.2 1.8, 14.6 2.7 C 13.9 3.0, 13.3 3.2, 12.5 3.3 C 12.9 3.1, 13.7 3.0, 14.1 3.7 C 13.4 3.8, 12.9 3.8, 12.2 3.7 C 11.4 3.9, 10.5 4.0, 9.5 4.0 Z" fill="url(#cpjSilverGrad)" stroke="#16222b" stroke-width="0.32" stroke-linejoin="round"/>
      </g>

      <!-- Offline Window with Sparkle -->
      <g transform="matrix(0.85 0 0 1 3.2 0)">
        <rect x="18.3" y="12.7" width="3.8" height="3.5" rx="0.4" fill="#001830"/>
        <path d="M 18.8 13.2 L 21.2 15.6" stroke="#4878a8" stroke-width="0.6" stroke-linecap="round" opacity="0.6"/>
        <g class="cpj-anim-sparkle">
          <path d="M 21.6 12.4 L 21.9 13.2 L 22.7 13.5 L 21.9 13.8 L 21.6 14.6 L 21.3 13.8 L 20.5 13.5 L 21.3 13.2 Z" fill="#ffffff"/>
        </g>
      </g>

      <!-- Offline Closed Door -->
      <path d="M 7 21 L 7 16 C 7 14.8 8.5 14.4 10.5 14.4 C 12.5 14.4 13 14.8 13 16 L 13 21 Z" fill="#b0522a" stroke="#002b4d" stroke-width="0.8"/>
      <line x1="8.5" y1="21" x2="8.5" y2="15.2" stroke="#66280e" stroke-width="0.5"/>
      <line x1="10" y1="21" x2="10" y2="14.5" stroke="#66280e" stroke-width="0.5"/>
      <line x1="11.5" y1="21" x2="11.5" y2="15.2" stroke="#66280e" stroke-width="0.5"/>
      <circle cx="11.4" cy="18.0" r="0.9" fill="url(#cpjCastIron)" stroke="#12161a" stroke-width="0.4"/>
      <circle cx="11.15" cy="17.75" r="0.28" fill="#a4b3bf"/>
    </g>

    <!-- Offline Status Pill -->
    <g transform="translate(160, 280)">
      <rect x="-115" y="-18" width="230" height="32" rx="16" fill="#002447" stroke="#ff4757" stroke-width="2"/>
      <circle cx="-90" cy="-2" r="5" fill="#ff4757"/>
      <text x="-76" y="3" font-family="'Fredoka', 'Segoe UI', Arial, sans-serif" font-size="12" font-weight="700" fill="#ffffff">
        BOT OFFLINE (CLICK TO START)
      </text>
    </g>
  </g>

  <!-- ==================== STATE: ONLINE (WHEN CLICKED) ==================== -->
  <g id="stateOnline" display="none">
    <set attributeName="display" to="inline" begin="btnTurnOn.click" />
    <set attributeName="display" to="none" begin="btnTurnOff.click" />

    <g transform="translate(65, 45) scale(6.8)">
      <!-- Smoke Puffs from Chimney -->
      <g class="cpj-anim-smoke-1">
        <circle cx="22" cy="1.6" r="1.3" fill="#ffffff" opacity="0.85"/>
        <circle cx="23.2" cy="0.6" r="1.6" fill="#eaf7ff" opacity="0.75"/>
      </g>
      <g class="cpj-anim-smoke-2">
        <circle cx="21.2" cy="1" r="1.1" fill="#ffffff" opacity="0.9"/>
        <circle cx="23.8" cy="-0.6" r="1.7" fill="#d9f2ff" opacity="0.65"/>
      </g>

      <!-- Wind Gusts -->
      <path class="cpj-anim-wind-1" d="M 0 1.8 Q 2.5 0.9, 5 1.8 T 9 1.8" fill="none" stroke="#ffffff" stroke-width="0.75" stroke-linecap="round"/>
      <path class="cpj-anim-wind-2" d="M -4 3.0 Q -1.5 2.1, 1 3.0 T 5 3.0" fill="none" stroke="#e0f7ff" stroke-width="0.7" stroke-linecap="round"/>
      <path class="cpj-anim-wind-3" d="M -8 2.2 Q -5.5 1.3, -3 2.2 T 1 2.2" fill="none" stroke="#b8e8ff" stroke-width="0.65" stroke-linecap="round"/>

      <!-- Spinning Rooster Weather Vane -->
      <g class="cpj-anim-rooster">
        <line x1="6.2" y1="4.6" x2="14.4" y2="4.6" stroke="#16222b" stroke-width="0.7"/>
        <line x1="6.4" y1="4.6" x2="14.2" y2="4.6" stroke="#ffffff" stroke-width="0.25"/>
        <polygon points="5.6,4.6 7.8,3.7 7.3,4.6 7.8,5.5" fill="url(#cpjSilverGrad)" stroke="#16222b" stroke-width="0.3"/>
        <path d="M 12.8 3.8 L 14.4 3.1 L 13.9 4.6 L 14.4 6.1 L 12.8 5.4 Z" fill="url(#cpjSilverGrad)" stroke="#16222b" stroke-width="0.3"/>
        <line x1="9.5" y1="4.6" x2="9.8" y2="3.9" stroke="#16222b" stroke-width="0.6"/>
        <line x1="10.5" y1="4.6" x2="10.7" y2="3.9" stroke="#16222b" stroke-width="0.6"/>
        <path d="M 9.5 4.0 C 8.8 4.0, 8.2 3.65, 7.8 3.2 C 7.6 2.8, 7.7 2.4, 7.8 2.05 C 7.7 1.9, 7.5 1.95, 7.3 1.85 C 7.15 1.75, 7.2 1.6, 7.3 1.5 L 6.3 1.45 L 7.2 1.20 L 7.3 0.80 L 7.55 1.00 L 7.8 0.55 L 8.05 0.85 L 8.35 0.40 L 8.60 0.75 L 8.95 0.55 L 9.15 0.85 C 9.0 1.05, 8.8 1.15, 8.6 1.25 C 8.9 1.7, 9.4 2.2, 9.9 2.6 C 10.4 2.9, 10.9 3.0, 11.4 2.8 C 12.3 1.3, 13.5 0.8, 14.5 1.7 C 13.9 2.1, 13.2 2.5, 12.3 2.7 C 13.1 1.9, 14.2 1.8, 14.6 2.7 C 13.9 3.0, 13.3 3.2, 12.5 3.3 C 12.9 3.1, 13.7 3.0, 14.1 3.7 C 13.4 3.8, 12.9 3.8, 12.2 3.7 C 11.4 3.9, 10.5 4.0, 9.5 4.0 Z" fill="url(#cpjSilverGrad)" stroke="#16222b" stroke-width="0.32" stroke-linejoin="round"/>
        <path d="M 7.3 1.5 C 7.15 1.75, 7.25 2.05, 7.45 2.05 C 7.65 2.05, 7.75 1.85, 7.75 1.7" fill="url(#cpjSilverGrad)" stroke="#16222b" stroke-width="0.22"/>
        <circle cx="7.45" cy="1.30" r="0.18" fill="#16222b"/>
      </g>

      <!-- Floor Diffuse Light -->
      <g class="cpj-anim-floor">
        <ellipse cx="10" cy="22.5" rx="5.5" ry="2.0" fill="url(#cpjFloorGrad)" filter="url(#cpjSoftBlur)"/>
      </g>

      <!-- Glowing Window with Flickering Fire -->
      <g transform="matrix(0.85 0 0 1 3.2 0)">
        <rect class="cpj-anim-fire" x="18.3" y="12.7" width="3.8" height="3.5" rx="0.4" fill="url(#cpjWinGlow)"/>
        <path d="M 18.8 13.2 L 21.2 15.6" stroke="#ffffff" stroke-width="0.65" opacity="0.8" stroke-linecap="round"/>
        <path d="M 19.8 13.0 L 21.6 14.8" stroke="#ffffff" stroke-width="0.45" opacity="0.6" stroke-linecap="round"/>
      </g>

      <!-- Warm Glowing Open Doorway -->
      <path class="cpj-anim-fire" d="M 7 21 C 7 16 8.5 15 10.5 15 C 12.5 15 13 16 13 21 Z" fill="url(#cpjDoorGlow)" stroke="#d48800" stroke-width="0.6"/>
      <path d="M 7.5 20.5 C 7.5 16.5 8.8 15.5 10.5 15.5 C 12.2 15.5 12.5 16.5 12.5 20.5" fill="none" stroke="#fff5cc" stroke-width="0.7" opacity="0.8"/>
    </g>

    <!-- Online Status Pill -->
    <g transform="translate(160, 280)">
      <rect x="-115" y="-18" width="230" height="32" rx="16" fill="#002447" stroke="#2ed573" stroke-width="2"/>
      <circle cx="-90" cy="-2" r="5" fill="#2ed573"/>
      <text x="-76" y="3" font-family="'Fredoka', 'Segoe UI', Arial, sans-serif" font-size="12" font-weight="700" fill="#ffffff">
        BOT ONLINE (CLICK TO PAUSE)
      </text>
    </g>
  </g>

  <!-- Interactive Invisible Click Triggers -->
  <circle id="btnTurnOn" cx="160" cy="140" r="115" fill="transparent" cursor="pointer">
    <set attributeName="display" to="none" begin="btnTurnOn.click" />
    <set attributeName="display" to="inline" begin="btnTurnOff.click" />
  </circle>
  <circle id="btnTurnOff" cx="160" cy="140" r="115" fill="transparent" cursor="pointer" display="none">
    <set attributeName="display" to="inline" begin="btnTurnOn.click" />
    <set attributeName="display" to="none" begin="btnTurnOff.click" />
  </circle>
</svg>
